<svg xmlns="http://www.w3.org/2000/svg" version="1.1" xmlns:xlink="http://www.w3.org/1999/xlink" xmlns:svgjs="http://svgjs.dev/svgjs" width="1440" height="560" preserveAspectRatio="none" viewBox="0 0 1440 560"><g mask="url(&quot;#SvgjsMask1889&quot;)" fill="none"><rect width="1440" height="560" x="0" y="0" fill="url(&quot;#SvgjsLinearGradient1890&quot;)"></rect><path d="M56.55 217.61L121.5 255.11L121.5 330.11L56.55 367.61L-8.4 330.11L-8.4 255.11zM56.55 442.61L121.5 480.11L121.5 555.11L56.55 592.61L-8.4 555.11L-8.4 480.11zM186.46 -7.39L251.41 30.11L251.41 105.11L186.46 142.61L121.5 105.11L121.5 30.11zM251.41 330.11L316.37 367.61L316.37 442.61L251.41 480.11L186.46 442.61L186.46 367.61zM316.37 217.61L381.32 255.11L381.32 330.11L316.37 367.61L251.41 330.11L251.41 255.11zM446.27 -7.39L511.23 30.11L511.23 105.11L446.27 142.61L381.32 105.11L381.32 30.11zM446.27 217.61L511.23 255.11L511.23 330.11L446.27 367.61L381.32 330.11L381.32 255.11zM576.18 -7.39L641.13 30.11L641.13 105.11L576.18 142.61L511.23 105.11L511.23 30.11zM641.13 330.11L706.09 367.61L706.09 442.61L641.13 480.11L576.18 442.61L576.18 367.61zM576.18 442.61L641.13 480.11L641.13 555.11L576.18 592.61L511.23 555.11L511.23 480.11zM771.04 330.11L836 367.61L836 442.61L771.04 480.11L706.09 442.61L706.09 367.61zM900.95 105.11L965.9 142.61L965.9 217.61L900.95 255.11L835.99 217.61L835.99 142.61zM835.99 217.61L900.95 255.11L900.95 330.11L835.99 367.61L771.04 330.11L771.04 255.11zM1030.86 105.11L1095.81 142.61L1095.81 217.61L1030.86 255.11L965.9 217.61L965.9 142.61zM1030.86 555.11L1095.81 592.61L1095.81 667.61L1030.86 705.11L965.9 667.61L965.9 592.61zM1095.81 -7.39L1160.76 30.11L1160.76 105.11L1095.81 142.61L1030.86 105.11L1030.86 30.11zM1160.76 330.11L1225.72 367.61L1225.72 442.61L1160.76 480.11L1095.81 442.61L1095.81 367.61zM1290.67 330.11L1355.62 367.61L1355.62 442.61L1290.67 480.11L1225.72 442.61L1225.72 367.61zM1290.67 555.11L1355.62 592.61L1355.62 667.61L1290.67 705.11L1225.72 667.61L1225.72 592.61zM1420.58 330.11L1485.53 367.61L1485.53 442.61L1420.58 480.11L1355.63 442.61L1355.63 367.61zM1420.58 555.11L1485.53 592.61L1485.53 667.61L1420.58 705.11L1355.63 667.61L1355.63 592.61zM1485.53 -7.39L1550.49 30.11L1550.49 105.11L1485.53 142.61L1420.58 105.11L1420.58 30.11zM1550.49 330.11L1615.44 367.61L1615.44 442.61L1550.49 480.11L1485.53 442.61L1485.53 367.61zM1485.53 442.61L1550.49 480.11L1550.49 555.11L1485.53 592.61L1420.58 555.11L1420.58 480.11z" stroke="rgba(0, 57, 114, 1)" stroke-width="2"></path><path d="M49.05 217.61 a7.5 7.5 0 1 0 15 0 a7.5 7.5 0 1 0 -15 0zM114 255.11 a7.5 7.5 0 1 0 15 0 a7.5 7.5 0 1 0 -15 0zM114 330.11 a7.5 7.5 0 1 0 15 0 a7.5 7.5 0 1 0 -15 0zM49.05 367.61 a7.5 7.5 0 1 0 15 0 a7.5 7.5 0 1 0 -15 0zM-15.9 330.11 a7.5 7.5 0 1 0 15 0 a7.5 7.5 0 1 0 -15 0zM-15.9 255.11 a7.5 7.5 0 1 0 15 0 a7.5 7.5 0 1 0 -15 0zM49.05 442.61 a7.5 7.5 0 1 0 15 0 a7.5 7.5 0 1 0 -15 0zM114 480.11 a7.5 7.5 0 1 0 15 0 a7.5 7.5 0 1 0 -15 0zM114 555.11 a7.5 7.5 0 1 0 15 0 a7.5 7.5 0 1 0 -15 0zM49.05 592.61 a7.5 7.5 0 1 0 15 0 a7.5 7.5 0 1 0 -15 0zM-15.9 555.11 a7.5 7.5 0 1 0 15 0 a7.5 7.5 0 1 0 -15 0zM-15.9 480.11 a7.5 7.5 0 1 0 15 0 a7.5 7.5 0 1 0 -15 0zM178.96 -7.39 a7.5 7.5 0 1 0 15 0 a7.5 7.5 0 1 0 -15 0zM243.91 30.11 a7.5 7.5 0 1 0 15 0 a7.5 7.5 0 1 0 -15 0zM243.91 105.11 a7.5 7.5 0 1 0 15 0 a7.5 7.5 0 1 0 -15 0zM178.96 142.61 a7.5 7.5 0 1 0 15 0 a7.5 7.5 0 1 0 -15 0zM114 105.11 a7.5 7.5 0 1 0 15 0 a7.5 7.5 0 1 0 -15 0zM114 30.11 a7.5 7.5 0 1 0 15 0 a7.5 7.5 0 1 0 -15 0zM243.91 330.11 a7.5 7.5 0 1 0 15 0 a7.5 7.5 0 1 0 -15 0zM308.87 367.61 a7.5 7.5 0 1 0 15 0 a7.5 7.5 0 1 0 -15 0zM308.87 442.61 a7.5 7.5 0 1 0 15 0 a7.5 7.5 0 1 0 -15 0zM243.91 480.11 a7.5 7.5 0 1 0 15 0 a7.5 7.5 0 1 0 -15 0zM178.96 442.61 a7.5 7.5 0 1 0 15 0 a7.5 7.5 0 1 0 -15 0zM178.96 367.61 a7.5 7.5 0 1 0 15 0 a7.5 7.5 0 1 0 -15 0zM308.87 217.61 a7.5 7.5 0 1 0 15 0 a7.5 7.5 0 1 0 -15 0zM373.82 255.11 a7.5 7.5 0 1 0 15 0 a7.5 7.5 0 1 0 -15 0zM373.82 330.11 a7.5 7.5 0 1 0 15 0 a7.5 7.5 0 1 0 -15 0zM243.91 255.11 a7.5 7.5 0 1 0 15 0 a7.5 7.5 0 1 0 -15 0zM438.77 -7.39 a7.5 7.5 0 1 0 15 0 a7.5 7.5 0 1 0 -15 0zM503.73 30.11 a7.5 7.5 0 1 0 15 0 a7.5 7.5 0 1 0 -15 0zM503.73 105.11 a7.5 7.5 0 1 0 15 0 a7.5 7.5 0 1 0 -15 0zM438.77 142.61 a7.5 7.5 0 1 0 15 0 a7.5 7.5 0 1 0 -15 0zM373.82 105.11 a7.5 7.5 0 1 0 15 0 a7.5 7.5 0 1 0 -15 0zM373.82 30.11 a7.5 7.5 0 1 0 15 0 a7.5 7.5 0 1 0 -15 0zM438.77 217.61 a7.5 7.5 0 1 0 15 0 a7.5 7.5 0 1 0 -15 0zM503.73 255.11 a7.5 7.5 0 1 0 15 0 a7.5 7.5 0 1 0 -15 0zM503.73 330.11 a7.5 7.5 0 1 0 15 0 a7.5 7.5 0 1 0 -15 0zM438.77 367.61 a7.5 7.5 0 1 0 15 0 a7.5 7.5 0 1 0 -15 0zM568.68 -7.39 a7.5 7.5 0 1 0 15 0 a7.5 7.5 0 1 0 -15 0zM633.63 30.11 a7.5 7.5 0 1 0 15 0 a7.5 7.5 0 1 0 -15 0zM633.63 105.11 a7.5 7.5 0 1 0 15 0 a7.5 7.5 0 1 0 -15 0zM568.68 142.61 a7.5 7.5 0 1 0 15 0 a7.5 7.5 0 1 0 -15 0zM633.63 330.11 a7.5 7.5 0 1 0 15 0 a7.5 7.5 0 1 0 -15 0zM698.59 367.61 a7.5 7.5 0 1 0 15 0 a7.5 7.5 0 1 0 -15 0zM698.59 442.61 a7.5 7.5 0 1 0 15 0 a7.5 7.5 0 1 0 -15 0zM633.63 480.11 a7.5 7.5 0 1 0 15 0 a7.5 7.5 0 1 0 -15 0zM568.68 442.61 a7.5 7.5 0 1 0 15 0 a7.5 7.5 0 1 0 -15 0zM568.68 367.61 a7.5 7.5 0 1 0 15 0 a7.5 7.5 0 1 0 -15 0zM633.63 555.11 a7.5 7.5 0 1 0 15 0 a7.5 7.5 0 1 0 -15 0zM568.68 592.61 a7.5 7.5 0 1 0 15 0 a7.5 7.5 0 1 0 -15 0zM503.73 555.11 a7.5 7.5 0 1 0 15 0 a7.5 7.5 0 1 0 -15 0zM503.73 480.11 a7.5 7.5 0 1 0 15 0 a7.5 7.5 0 1 0 -15 0zM763.54 330.11 a7.5 7.5 0 1 0 15 0 a7.5 7.5 0 1 0 -15 0zM828.5 367.61 a7.5 7.5 0 1 0 15 0 a7.5 7.5 0 1 0 -15 0zM828.5 442.61 a7.5 7.5 0 1 0 15 0 a7.5 7.5 0 1 0 -15 0zM763.54 480.11 a7.5 7.5 0 1 0 15 0 a7.5 7.5 0 1 0 -15 0zM893.45 105.11 a7.5 7.5 0 1 0 15 0 a7.5 7.5 0 1 0 -15 0zM958.4 142.61 a7.5 7.5 0 1 0 15 0 a7.5 7.5 0 1 0 -15 0zM958.4 217.61 a7.5 7.5 0 1 0 15 0 a7.5 7.5 0 1 0 -15 0zM893.45 255.11 a7.5 7.5 0 1 0 15 0 a7.5 7.5 0 1 0 -15 0zM828.49 217.61 a7.5 7.5 0 1 0 15 0 a7.5 7.5 0 1 0 -15 0zM828.49 142.61 a7.5 7.5 0 1 0 15 0 a7.5 7.5 0 1 0 -15 0zM893.45 330.11 a7.5 7.5 0 1 0 15 0 a7.5 7.5 0 1 0 -15 0zM828.49 367.61 a7.5 7.5 0 1 0 15 0 a7.5 7.5 0 1 0 -15 0zM763.54 255.11 a7.5 7.5 0 1 0 15 0 a7.5 7.5 0 1 0 -15 0zM1023.36 105.11 a7.5 7.5 0 1 0 15 0 a7.5 7.5 0 1 0 -15 0zM1088.31 142.61 a7.5 7.5 0 1 0 15 0 a7.5 7.5 0 1 0 -15 0zM1088.31 217.61 a7.5 7.5 0 1 0 15 0 a7.5 7.5 0 1 0 -15 0zM1023.36 255.11 a7.5 7.5 0 1 0 15 0 a7.5 7.5 0 1 0 -15 0zM1023.36 555.11 a7.5 7.5 0 1 0 15 0 a7.5 7.5 0 1 0 -15 0zM1088.31 592.61 a7.5 7.5 0 1 0 15 0 a7.5 7.5 0 1 0 -15 0zM1088.31 667.61 a7.5 7.5 0 1 0 15 0 a7.5 7.5 0 1 0 -15 0zM1023.36 705.11 a7.5 7.5 0 1 0 15 0 a7.5 7.5 0 1 0 -15 0zM958.4 667.61 a7.5 7.5 0 1 0 15 0 a7.5 7.5 0 1 0 -15 0zM958.4 592.61 a7.5 7.5 0 1 0 15 0 a7.5 7.5 0 1 0 -15 0zM1088.31 -7.39 a7.5 7.5 0 1 0 15 0 a7.5 7.5 0 1 0 -15 0zM1153.26 30.11 a7.5 7.5 0 1 0 15 0 a7.5 7.5 0 1 0 -15 0zM1153.26 105.11 a7.5 7.5 0 1 0 15 0 a7.5 7.5 0 1 0 -15 0zM1023.36 30.11 a7.5 7.5 0 1 0 15 0 a7.5 7.5 0 1 0 -15 0zM1153.26 330.11 a7.5 7.5 0 1 0 15 0 a7.5 7.5 0 1 0 -15 0zM1218.22 367.61 a7.5 7.5 0 1 0 15 0 a7.5 7.5 0 1 0 -15 0zM1218.22 442.61 a7.5 7.5 0 1 0 15 0 a7.5 7.5 0 1 0 -15 0zM1153.26 480.11 a7.5 7.5 0 1 0 15 0 a7.5 7.5 0 1 0 -15 0zM1088.31 442.61 a7.5 7.5 0 1 0 15 0 a7.5 7.5 0 1 0 -15 0zM1088.31 367.61 a7.5 7.5 0 1 0 15 0 a7.5 7.5 0 1 0 -15 0zM1283.17 330.11 a7.5 7.5 0 1 0 15 0 a7.5 7.5 0 1 0 -15 0zM1348.12 367.61 a7.5 7.5 0 1 0 15 0 a7.5 7.5 0 1 0 -15 0zM1348.12 442.61 a7.5 7.5 0 1 0 15 0 a7.5 7.5 0 1 0 -15 0zM1283.17 480.11 a7.5 7.5 0 1 0 15 0 a7.5 7.5 0 1 0 -15 0zM1283.17 555.11 a7.5 7.5 0 1 0 15 0 a7.5 7.5 0 1 0 -15 0zM1348.12 592.61 a7.5 7.5 0 1 0 15 0 a7.5 7.5 0 1 0 -15 0zM1348.12 667.61 a7.5 7.5 0 1 0 15 0 a7.5 7.5 0 1 0 -15 0zM1283.17 705.11 a7.5 7.5 0 1 0 15 0 a7.5 7.5 0 1 0 -15 0zM1218.22 667.61 a7.5 7.5 0 1 0 15 0 a7.5 7.5 0 1 0 -15 0zM1218.22 592.61 a7.5 7.5 0 1 0 15 0 a7.5 7.5 0 1 0 -15 0zM1413.08 330.11 a7.5 7.5 0 1 0 15 0 a7.5 7.5 0 1 0 -15 0zM1478.03 367.61 a7.5 7.5 0 1 0 15 0 a7.5 7.5 0 1 0 -15 0zM1478.03 442.61 a7.5 7.5 0 1 0 15 0 a7.5 7.5 0 1 0 -15 0zM1413.08 480.11 a7.5 7.5 0 1 0 15 0 a7.5 7.5 0 1 0 -15 0zM1348.13 442.61 a7.5 7.5 0 1 0 15 0 a7.5 7.5 0 1 0 -15 0zM1348.13 367.61 a7.5 7.5 0 1 0 15 0 a7.5 7.5 0 1 0 -15 0zM1413.08 555.11 a7.5 7.5 0 1 0 15 0 a7.5 7.5 0 1 0 -15 0zM1478.03 592.61 a7.5 7.5 0 1 0 15 0 a7.5 7.5 0 1 0 -15 0zM1478.03 667.61 a7.5 7.5 0 1 0 15 0 a7.5 7.5 0 1 0 -15 0zM1413.08 705.11 a7.5 7.5 0 1 0 15 0 a7.5 7.5 0 1 0 -15 0zM1348.13 667.61 a7.5 7.5 0 1 0 15 0 a7.5 7.5 0 1 0 -15 0zM1348.13 592.61 a7.5 7.5 0 1 0 15 0 a7.5 7.5 0 1 0 -15 0zM1478.03 -7.39 a7.5 7.5 0 1 0 15 0 a7.5 7.5 0 1 0 -15 0zM1542.99 30.11 a7.5 7.5 0 1 0 15 0 a7.5 7.5 0 1 0 -15 0zM1542.99 105.11 a7.5 7.5 0 1 0 15 0 a7.5 7.5 0 1 0 -15 0zM1478.03 142.61 a7.5 7.5 0 1 0 15 0 a7.5 7.5 0 1 0 -15 0zM1413.08 105.11 a7.5 7.5 0 1 0 15 0 a7.5 7.5 0 1 0 -15 0zM1413.08 30.11 a7.5 7.5 0 1 0 15 0 a7.5 7.5 0 1 0 -15 0zM1542.99 330.11 a7.5 7.5 0 1 0 15 0 a7.5 7.5 0 1 0 -15 0zM1607.94 367.61 a7.5 7.5 0 1 0 15 0 a7.5 7.5 0 1 0 -15 0zM1607.94 442.61 a7.5 7.5 0 1 0 15 0 a7.5 7.5 0 1 0 -15 0zM1542.99 480.11 a7.5 7.5 0 1 0 15 0 a7.5 7.5 0 1 0 -15 0zM1542.99 555.11 a7.5 7.5 0 1 0 15 0 a7.5 7.5 0 1 0 -15 0z" fill="rgba(0, 57, 114, 1)"></path><path d="M30.74 -27.47L74.04 -2.47L74.04 47.53L30.74 72.53L-12.56 47.53L-12.56 -2.47zM74.04 47.53L117.34 72.53L117.34 122.53L74.04 147.53L30.74 122.53L30.74 72.53zM30.74 122.53L74.04 147.53L74.04 197.53L30.74 222.53L-12.56 197.53L-12.56 147.53zM74.04 347.53L117.34 372.53L117.34 422.53L74.04 447.53L30.74 422.53L30.74 372.53zM117.34 272.53L160.65 297.53L160.65 347.53L117.34 372.53L74.04 347.53L74.04 297.53zM117.34 422.53L160.65 447.53L160.65 497.53L117.34 522.53L74.04 497.53L74.04 447.53zM203.95 422.53L247.25 447.53L247.25 497.53L203.95 522.53L160.65 497.53L160.65 447.53zM290.56 122.53L333.86 147.53L333.86 197.53L290.56 222.53L247.25 197.53L247.25 147.53zM377.16 -27.47L420.46 -2.47L420.46 47.53L377.16 72.53L333.86 47.53L333.86 -2.47zM420.46 47.53L463.77 72.53L463.77 122.53L420.46 147.53L377.16 122.53L377.16 72.53zM377.16 422.53L420.46 447.53L420.46 497.53L377.16 522.53L333.86 497.53L333.86 447.53zM463.77 -27.47L507.07 -2.47L507.07 47.53L463.77 72.53L420.46 47.53L420.46 -2.47zM463.77 422.53L507.07 447.53L507.07 497.53L463.77 522.53L420.46 497.53L420.46 447.53zM550.37 122.53L593.67 147.53L593.67 197.53L550.37 222.53L507.07 197.53L507.07 147.53zM636.98 -27.47L680.28 -2.47L680.28 47.53L636.98 72.53L593.67 47.53L593.67 -2.47zM636.98 122.53L680.28 147.53L680.28 197.53L636.98 222.53L593.67 197.53L593.67 147.53zM723.58 122.53L766.88 147.53L766.88 197.53L723.58 222.53L680.28 197.53L680.28 147.53zM723.58 422.53L766.88 447.53L766.88 497.53L723.58 522.53L680.28 497.53L680.28 447.53zM810.19 -27.47L853.49 -2.47L853.49 47.53L810.19 72.53L766.88 47.53L766.88 -2.47zM810.19 122.53L853.49 147.53L853.49 197.53L810.19 222.53L766.88 197.53L766.88 147.53zM853.49 197.53L896.79 222.53L896.79 272.53L853.49 297.53L810.19 272.53L810.19 222.53zM853.49 497.53L896.79 522.53L896.79 572.53L853.49 597.53L810.19 572.53L810.19 522.53zM1026.7 197.53L1070 222.53L1070 272.53L1026.7 297.53L983.4 272.53L983.4 222.53zM1026.7 347.53L1070 372.53L1070 422.53L1026.7 447.53L983.4 422.53L983.4 372.53zM1113.3 197.53L1156.61 222.53L1156.61 272.53L1113.3 297.53L1070 272.53L1070 222.53zM1113.3 497.53L1156.61 522.53L1156.61 572.53L1113.3 597.53L1070 572.53L1070 522.53zM1199.91 47.53L1243.21 72.53L1243.21 122.53L1199.91 147.53L1156.61 122.53L1156.61 72.53zM1199.91 197.53L1243.21 222.53L1243.21 272.53L1199.91 297.53L1156.61 272.53L1156.61 222.53zM1243.21 -27.47L1286.51 -2.47L1286.51 47.53L1243.21 72.53L1199.91 47.53L1199.91 -2.47zM1286.51 197.53L1329.82 222.53L1329.82 272.53L1286.51 297.53L1243.21 272.53L1243.21 222.53zM1286.51 497.53L1329.82 522.53L1329.82 572.53L1286.51 597.53L1243.21 572.53L1243.21 522.53z" stroke="rgba(255, 255, 255, 0.93)" stroke-width="2"></path></g><defs><mask id="SvgjsMask1889"><rect width="1440" height="560" fill="#ffffff"></rect></mask><linearGradient x1="15.28%" y1="-39.29%" x2="84.72%" y2="139.29%" gradientUnits="userSpaceOnUse" id="SvgjsLinearGradient1890"><stop stop-color="rgba(38, 115, 195, 1)" offset="0"></stop><stop stop-color="rgba(0, 77, 156, 1)" offset="0.17"></stop><stop stop-color="rgba(0, 35, 71, 1)" offset="0.55"></stop><stop stop-color="rgba(0, 4, 89, 1)" offset="0.9"></stop></linearGradient></defs></svg>