<svg xmlns="http://www.w3.org/2000/svg" version="1.1" xmlns:xlink="http://www.w3.org/1999/xlink" xmlns:svgjs="http://svgjs.dev/svgjs" viewBox="0 0 800 800" opacity="0.8"><defs><linearGradient x1="50%" y1="0%" x2="50%" y2="100%" id="vvvortex-grad"><stop stop-color="hsl(104, 100%, 40%)" stop-opacity="1" offset="0%"></stop><stop stop-color="hsl(109, 100%, 15%)" stop-opacity="1" offset="100%"></stop></linearGradient></defs><g stroke="url(#vvvortex-grad)" fill="none" stroke-linecap="round"><circle r="412.5" cx="400" cy="400" stroke-width="11" stroke-dasharray="27 45" stroke-dashoffset="25" transform="rotate(242, 400, 400)" opacity="1.00"></circle><circle r="396" cx="400" cy="400" stroke-width="10" stroke-dasharray="43 28" stroke-dashoffset="25" transform="rotate(28, 400, 400)" opacity="0.96"></circle><circle r="379.5" cx="400" cy="400" stroke-width="10" stroke-dasharray="27 50" stroke-dashoffset="25" transform="rotate(279, 400, 400)" opacity="0.92"></circle><circle r="363" cx="400" cy="400" stroke-width="10" stroke-dasharray="31 43" stroke-dashoffset="25" transform="rotate(92, 400, 400)" opacity="0.88"></circle><circle r="346.5" cx="400" cy="400" stroke-width="10" stroke-dasharray="53 48" stroke-dashoffset="25" transform="rotate(50, 400, 400)" opacity="0.84"></circle><circle r="330" cx="400" cy="400" stroke-width="9" stroke-dasharray="21 21" stroke-dashoffset="25" transform="rotate(326, 400, 400)" opacity="0.80"></circle><circle r="313.5" cx="400" cy="400" stroke-width="9" stroke-dasharray="21 26" stroke-dashoffset="25" transform="rotate(94, 400, 400)" opacity="0.76"></circle><circle r="297" cx="400" cy="400" stroke-width="9" stroke-dasharray="28 22" stroke-dashoffset="25" transform="rotate(188, 400, 400)" opacity="0.72"></circle><circle r="280.5" cx="400" cy="400" stroke-width="9" stroke-dasharray="43 25" stroke-dashoffset="25" transform="rotate(348, 400, 400)" opacity="0.68"></circle><circle r="264" cx="400" cy="400" stroke-width="8" stroke-dasharray="26 22" stroke-dashoffset="25" transform="rotate(53, 400, 400)" opacity="0.64"></circle><circle r="247.5" cx="400" cy="400" stroke-width="8" stroke-dasharray="35 54" stroke-dashoffset="25" transform="rotate(285, 400, 400)" opacity="0.60"></circle><circle r="231" cx="400" cy="400" stroke-width="8" stroke-dasharray="36 41" stroke-dashoffset="25" transform="rotate(295, 400, 400)" opacity="0.56"></circle><circle r="214.5" cx="400" cy="400" stroke-width="8" stroke-dasharray="25 45" stroke-dashoffset="25" transform="rotate(79, 400, 400)" opacity="0.53"></circle><circle r="198" cx="400" cy="400" stroke-width="7" stroke-dasharray="11 46" stroke-dashoffset="25" transform="rotate(27, 400, 400)" opacity="0.49"></circle><circle r="181.5" cx="400" cy="400" stroke-width="7" stroke-dasharray="13 34" stroke-dashoffset="25" transform="rotate(235, 400, 400)" opacity="0.45"></circle><circle r="165" cx="400" cy="400" stroke-width="7" stroke-dasharray="52 13" stroke-dashoffset="25" transform="rotate(240, 400, 400)" opacity="0.41"></circle><circle r="148.5" cx="400" cy="400" stroke-width="7" stroke-dasharray="38 47" stroke-dashoffset="25" transform="rotate(168, 400, 400)" opacity="0.37"></circle><circle r="132" cx="400" cy="400" stroke-width="6" stroke-dasharray="17 26" stroke-dashoffset="25" transform="rotate(305, 400, 400)" opacity="0.33"></circle><circle r="115.5" cx="400" cy="400" stroke-width="6" stroke-dasharray="51 42" stroke-dashoffset="25" transform="rotate(306, 400, 400)" opacity="0.29"></circle><circle r="99" cx="400" cy="400" stroke-width="6" stroke-dasharray="23 34" stroke-dashoffset="25" transform="rotate(204, 400, 400)" opacity="0.25"></circle><circle r="82.5" cx="400" cy="400" stroke-width="6" stroke-dasharray="35 46" stroke-dashoffset="25" transform="rotate(71, 400, 400)" opacity="0.21"></circle><circle r="66" cx="400" cy="400" stroke-width="5" stroke-dasharray="46 44" stroke-dashoffset="25" transform="rotate(268, 400, 400)" opacity="0.17"></circle><circle r="49.5" cx="400" cy="400" stroke-width="5" stroke-dasharray="18 34" stroke-dashoffset="25" transform="rotate(306, 400, 400)" opacity="0.13"></circle><circle r="33" cx="400" cy="400" stroke-width="5" stroke-dasharray="31 26" stroke-dashoffset="25" transform="rotate(63, 400, 400)" opacity="0.09"></circle><circle r="16.5" cx="400" cy="400" stroke-width="5" stroke-dasharray="48 11" stroke-dashoffset="25" transform="rotate(289, 400, 400)" opacity="0.05"></circle></g></svg>